<svg xmlns="http://www.w3.org/2000/svg" viewBox="0 0 50 50"><defs><style>.cls-1{fill:#231f20;}</style></defs><title>Recurso 52</title><g id="Capa_2" data-name="Capa 2"><g id="Layer_3" data-name="Layer 3"><path class="cls-1" d="M25,3.15A21.89,21.89,0,0,1,46.64,28.07c0,.31-.09.54-.12.76h0A21.8,21.8,0,0,1,30.06,46.26c-.2.05-.41.1-.65.14a21.64,21.64,0,0,1-4.41.45,21.85,21.85,0,0,1,0-43.7M25,0a25,25,0,0,0,0,50,24.62,24.62,0,0,0,5-.51l.76-.17A25,25,0,0,0,49.61,29.39c.06-.28.1-.58.14-.87A24.11,24.11,0,0,0,50,25,25,25,0,0,0,25,0Z"/><path class="cls-1" d="M37.5,17.42s0,0,0,0V17.3l0,0h0l0,0s0,0,0-.05v0l0,0-.05,0-.06,0h0l-.05,0h-.22l-3.17.71-.67.15L11.2,22.83a.47.47,0,0,0-.36.37.48.48,0,0,0,.2.48l5.41,3.65-.31,7.13a.09.09,0,0,0,0,0,.28.28,0,0,0,0,.09l0,.07a.3.3,0,0,0,0,.08l.05.06,0,0h0a.6.6,0,0,0,.16.08h.11a.45.45,0,0,0,.27-.1h0L21.83,31l1,.7L26.33,34a.5.5,0,0,0,.26.08h.1a.52.52,0,0,0,.3-.21L36,20l1.44-2.23s0,0,0,0a.19.19,0,0,0,0-.07s0,0,0,0v-.06a.17.17,0,0,0,0-.07Zm-25,6.08,19.38-4.38,1.21-.27-1.8.86L17,26.55Zm17.41-2.08L29,22h0l-10,6.3s0,0,0,0l0,0,0,.05,0,.06s0,0,0,0l0,0-1.63,3.61.2-4.68,11.87-5.68h0Zm-11,10.66h0l-1.06.83,1.61-3.56,1.3.88.26.18Zm7.56.87-2.92-2-2.12-1.44-1.31-.88L26,25h0l9.19-5.78.28-.18-.08.12h0l-.09.15Z"/></g></g></svg>