<svg xmlns="http://www.w3.org/2000/svg" viewBox="0 0 50 50"><defs><style>.cls-1{fill:#86be40;}.cls-2{fill:#4b2719;}.cls-3{fill:#2f2b69;}.cls-4{fill:#fff5d0;}.cls-5{fill:#6f5029;}.cls-6{fill:#010101;opacity:0.11;}</style></defs><title>Recurso 4</title><g id="Capa_2" data-name="Capa 2"><g id="Layer_1" data-name="Layer 1"><path class="cls-1" d="M50,25a26.07,26.07,0,0,1-.14,2.67c0,.32-.07.63-.12.94a25,25,0,0,1-19.8,20.9l-.82.15A25.45,25.45,0,0,1,25,50,25,25,0,1,1,50,25Z"/><path class="cls-2" d="M36.47,19l.06-.05.25-.24a2.19,2.19,0,0,0,0-3.07l-1.05-1a2.16,2.16,0,0,0-3.07,0l-.14.14,0,0a13.27,13.27,0,0,0-5.11-2.1v-.51a1.75,1.75,0,0,0,.89-1.54V9.91a1.76,1.76,0,0,0-1.76-1.76h-3a1.76,1.76,0,0,0-1.76,1.76v.72a1.75,1.75,0,0,0,.89,1.54v.51A13.33,13.33,0,1,0,36.47,19ZM33.1,15a1.57,1.57,0,0,1,1.1-.45,1.55,1.55,0,0,1,1.09.45l1.05,1.05a1.56,1.56,0,0,1,0,2.19l-.2.2A13.45,13.45,0,0,0,33,15.14ZM22.36,10.63V9.91A1.14,1.14,0,0,1,23.5,8.77h3a1.14,1.14,0,0,1,1.14,1.14v.72a1.14,1.14,0,0,1-.89,1.12v.84a12,12,0,0,0-3.53,0v-.84A1.14,1.14,0,0,1,22.36,10.63ZM25,38.48a12.7,12.7,0,0,1-2-25.24.63.63,0,0,0,.19,0h.09a11.75,11.75,0,0,1,3.35,0h.09a.63.63,0,0,0,.19,0,12.65,12.65,0,0,1,5.45,2.24.79.79,0,0,0,.17.2,12.74,12.74,0,0,1,3,3.18.69.69,0,0,0,.19.19A12.69,12.69,0,0,1,25,38.48Z"/><path class="cls-3" d="M25,13.09a12.7,12.7,0,1,0,12.7,12.7A12.7,12.7,0,0,0,25,13.09Zm.37,23.53V34.74a.37.37,0,0,0-.37-.37.38.38,0,0,0-.37.37v1.88A10.85,10.85,0,0,1,14.18,26.16h1.88a.38.38,0,0,0,0-.75H14.18A10.85,10.85,0,0,1,24.64,15v1.88a.38.38,0,0,0,.37.37.37.37,0,0,0,.37-.37V15A10.85,10.85,0,0,1,35.85,25.41H34a.38.38,0,0,0,0,.75h1.88A10.85,10.85,0,0,1,25.38,36.62Z"/><path class="cls-4" d="M33.6,25.79a.38.38,0,0,1,.37-.38h1.88A10.85,10.85,0,0,0,25.38,15v1.88a.37.37,0,0,1-.37.37.38.38,0,0,1-.37-.37V15A10.85,10.85,0,0,0,14.18,25.41h1.88a.38.38,0,0,1,0,.75H14.18A10.85,10.85,0,0,0,24.64,36.62V34.74a.38.38,0,0,1,.37-.37.37.37,0,0,1,.37.37v1.88A10.85,10.85,0,0,0,35.85,26.16H34A.38.38,0,0,1,33.6,25.79Zm-1.39-3.71L25.3,26.26a.57.57,0,0,1-.29.08l-.17,0L19.1,24.45a.56.56,0,0,1,.35-1.06l5.49,1.79,6.69-4.05a.55.55,0,0,1,.76.18A.56.56,0,0,1,32.21,22.08Z"/><path class="cls-5" d="M23.25,11.75v.9a13,13,0,0,1,3.53,0v-.9a1.14,1.14,0,0,0,.89-1.12V9.91a1.14,1.14,0,0,0-1.14-1.14h-3a1.14,1.14,0,0,0-1.14,1.14v.72A1.14,1.14,0,0,0,23.25,11.75Z"/><path class="cls-3" d="M32.21,22.08,25.3,26.26a.57.57,0,0,1-.29.08l-.17,0L19.1,24.45a.56.56,0,0,1,.35-1.06l5.49,1.79,6.69-4.05a.55.55,0,0,1,.76.18A.56.56,0,0,1,32.21,22.08Z"/><path class="cls-5" d="M36.09,18.52l.25-.24a1.56,1.56,0,0,0,0-2.19L35.29,15a1.56,1.56,0,0,0-2.19,0l-.14.14A13.43,13.43,0,0,1,36.09,18.52Z"/><path class="cls-6" d="M49.74,28.61a25,25,0,0,1-19.8,20.9L16.17,35.74l.17.14.21.18.24.19c.24.19.48.37.73.54l.29.19a13.48,13.48,0,0,0,2,1.08l.24.09c.27.11.56.22.85.31h0l.43.13h0l.47.12h.05l.34.08h.07l.2,0,.38.07.38.05h0l.24,0,.33,0,.49,0H25a13.34,13.34,0,0,0,11.56-6.7c.16-.28.31-.56.45-.85l.27-.59a13.51,13.51,0,0,0,.7-2.18c0-.21.1-.43.13-.65s0-.22.06-.33.06-.44.08-.66a12.26,12.26,0,0,0,.07-1.36A13.2,13.2,0,0,0,36.47,19l.06-.05.24-.24h0a2.09,2.09,0,0,0,.14-.17.66.66,0,0,0,.12-.17h0l.1-.17h0l.05-.09,0-.1a1.27,1.27,0,0,0,.06-.18.17.17,0,0,0,0-.05.83.83,0,0,1,0-.15v0a.88.88,0,0,0,0-.16,0,0,0,0,0,0,0c0-.07,0-.14,0-.2a3,3,0,0,0,0-.42,2.15,2.15,0,0,0-.59-1.11Z"/><path class="cls-6" d="M33.28,14.17a2.15,2.15,0,0,0-.61.44l-.14.14,0,0a13.26,13.26,0,0,0-5.11-2.09v-.51a1.75,1.75,0,0,0,.89-1.54V9.91a1.73,1.73,0,0,0-.48-1.21Z"/></g></g></svg>