<svg xmlns="http://www.w3.org/2000/svg" viewBox="0 0 50 50"><defs><style>.cls-1{fill:#231f20;}</style></defs><title>Recurso 47</title><g id="Capa_2" data-name="Capa 2"><g id="Layer_3" data-name="Layer 3"><path class="cls-1" d="M25,3.15A21.87,21.87,0,0,1,46.85,25a21.27,21.27,0,0,1-.3,3.58c0,.24-.08.47-.13.72a21.87,21.87,0,0,1-19.3,17.45q-.44,0-.9.06c-.4,0-.81,0-1.22,0a21.85,21.85,0,0,1,0-43.7M25,0a25,25,0,0,0,0,50c.47,0,.94,0,1.4,0l1-.08a25,25,0,0,0,22.07-20c.06-.27.11-.55.15-.82A25,25,0,0,0,25,0Z"/><path class="cls-1" d="M40.09,20.78a2.13,2.13,0,0,0-.37-.66l0,0a1.87,1.87,0,0,0-1.43-.63H30.32a.94.94,0,0,1-.89-.65L27,11.25a1.79,1.79,0,0,0-.37-.66,1.93,1.93,0,0,0-2.67-.23,2,2,0,0,0-.61.89l-2.45,7.56a1,1,0,0,1-.89.65H12a1.91,1.91,0,0,0-1.19,3.42l.06,0,6.42,4.67a.93.93,0,0,1,.34,1.05l-.26.81L15.22,36.2a1.9,1.9,0,0,0,.63,2.09l.07.05a1.9,1.9,0,0,0,1.12.37,1.93,1.93,0,0,0,1.13-.37l6.43-4.67a.93.93,0,0,1,1.1,0l6.43,4.67a1.9,1.9,0,0,0,1.12.37,2,2,0,0,0,1.13-.37,1.9,1.9,0,0,0,.7-2.14l-2.46-7.56A1,1,0,0,1,33,27.59l6.42-4.67A1.89,1.89,0,0,0,40.09,20.78Zm-1.28,1.35L32.39,26.8a1.94,1.94,0,0,0-.7,2.15l2.46,7.55a1,1,0,0,1-.9,1.24,1,1,0,0,1-.55-.19l-6.42-4.67a1.92,1.92,0,0,0-1.13-.36,1.9,1.9,0,0,0-1.13.36L17.6,37.55a1,1,0,0,1-.55.19.93.93,0,0,1-.56-.19,1,1,0,0,1-.18-.17.88.88,0,0,1-.16-.88l2-6.28L18.6,29a1.92,1.92,0,0,0-.69-2.15l-6.43-4.67-.12-.1a.94.94,0,0,1,.68-1.6H20a1.91,1.91,0,0,0,1.82-1.32l2.45-7.55a.91.91,0,0,1,.38-.5,1,1,0,0,1,1.16.09.84.84,0,0,1,.25.41l2.46,7.55a1.9,1.9,0,0,0,1.82,1.32h7.94a.89.89,0,0,1,.67.28,1,1,0,0,1,.23.37A.91.91,0,0,1,38.81,22.13ZM35.33,23l-4.79,3.47A1.42,1.42,0,0,0,30,28.05l1.83,5.63a.69.69,0,0,1-.26.79.74.74,0,0,1-.41.13.7.7,0,0,1-.41-.14L26,31a1.44,1.44,0,0,0-1.68,0l-4.78,3.47a.73.73,0,0,1-.42.14.67.67,0,0,1-.41-.14.69.69,0,0,1-.26-.78l1.83-5.63a1.4,1.4,0,0,0-.51-1.59L15,23a.71.71,0,0,1-.26-.79.7.7,0,0,1,.67-.49h5.91a1.4,1.4,0,0,0,1.36-1l1.83-5.62a.7.7,0,0,1,1.34,0l1.83,5.62a1.41,1.41,0,0,0,1.35,1h5.91a.68.68,0,0,1,.67.49A.71.71,0,0,1,35.33,23Z"/></g></g></svg>