<svg xmlns="http://www.w3.org/2000/svg" viewBox="0 0 50 50"><defs><style>.cls-1{fill:#2f2b69;}.cls-2{fill:#ef446d;}.cls-3{fill:#b62025;}.cls-4{fill:#fff;}.cls-5{fill:#010101;opacity:0.35;}</style></defs><title>Recurso 8</title><g id="Capa_2" data-name="Capa 2"><g id="Layer_1" data-name="Layer 1"><path class="cls-1" d="M50,25a24.75,24.75,0,0,1-.3,3.87c0,.28-.09.56-.14.84A25,25,0,0,1,34.34,48.19l-.5.2A25,25,0,1,1,50,25Z"/><path class="cls-2" d="M38.86,21.52a7.79,7.79,0,0,0-2-4.54,7.9,7.9,0,0,0-11.46-.25v0h0A7.93,7.93,0,0,0,14.14,27.93L24.2,38.06l.07.06a1.62,1.62,0,0,0,2.23-.06L36.57,27.93A7.9,7.9,0,0,0,38.86,21.52Z"/><path class="cls-3" d="M19.74,15.32h0a7,7,0,0,1,5,2.05l.26.26.41.41.66-.66A6.93,6.93,0,0,1,31,15.32c.24,0,.48,0,.71,0a7,7,0,0,1,6.26,6.25,7,7,0,0,1-2,5.67c-2.13,2.13-7.52,7.55-10.07,10.12a.71.71,0,0,1-.49.21.71.71,0,0,1-.45-.17l0,0L14.8,27.27a7,7,0,0,1,0-9.89,6.94,6.94,0,0,1,4.23-2,5.74,5.74,0,0,1,.71,0Zm0-.93c-.26,0-.53,0-.8,0a7.93,7.93,0,0,0-4.8,13.5L24.2,38.06l.07.06a1.61,1.61,0,0,0,2.23-.06L36.57,27.93a7.9,7.9,0,0,0,2.29-6.41,7.79,7.79,0,0,0-2-4.54,7.9,7.9,0,0,0-5.05-2.55c-.27,0-.53,0-.8,0a7.87,7.87,0,0,0-5.61,2.34v0h0a7.94,7.94,0,0,0-5.61-2.32Z"/><path class="cls-4" d="M22.65,17.41c-.08.2-.82,0-1.93.09a6.7,6.7,0,0,0-3.87,1.43,6.52,6.52,0,0,0-2.22,3.48c-.29,1.07-.3,1.83-.51,1.86s-.58-.69-.54-2A5.71,5.71,0,0,1,14.14,20a6.3,6.3,0,0,1,1.77-2.25,6.4,6.4,0,0,1,2.58-1.24,5.89,5.89,0,0,1,2.31-.07C22.1,16.69,22.73,17.24,22.65,17.41Z"/><path class="cls-5" d="M49.56,29.71A25,25,0,0,1,34.34,48.19L24.27,38.12a1.62,1.62,0,0,0,2.23-.06L36.57,27.93a7.9,7.9,0,0,0,2.29-6.41,7.79,7.79,0,0,0-2-4.54Z"/></g></g></svg>