<svg xmlns="http://www.w3.org/2000/svg" viewBox="0 0 50 50"><defs><style>.cls-1{fill:#1a9155;}.cls-2{fill:#351210;}.cls-3{fill:#fff;}.cls-4{fill:#010101;opacity:0.2;}</style></defs><title>Recurso 14</title><g id="Capa_2" data-name="Capa 2"><g id="Layer_1" data-name="Layer 1"><path class="cls-1" d="M50,25a24.77,24.77,0,0,1-1.26,7.84c-.06.19-.12.38-.19.56A25,25,0,0,1,25,50c-.55,0-1.1,0-1.64,0s-1-.08-1.47-.14A25,25,0,1,1,50,25Z"/><path class="cls-2" d="M40.9,35.3l-3-6.73h0l-4.44-9.85a.4.4,0,0,0-.37-.25h0a.41.41,0,0,0-.37.24l-1.35,3L26,10.84a.44.44,0,0,0-.08-.11.41.41,0,0,0-.67.14l-.35.87L19.79,24.51l-2.67-5-1.77-3.32a.42.42,0,0,0-.41-.22.43.43,0,0,0-.35.3L11.44,27.15h0L9.07,35.35a.42.42,0,0,0,.07.36l0,0,0,0a.42.42,0,0,0,.27.09H40.53a.4.4,0,0,0,.37-.58Zm-21.81-9-.22.55-.47-.3L17,25.59a.35.35,0,0,0-.13-.05h-.05a.33.33,0,0,0-.14,0,.38.38,0,0,0-.26.18l-.74,1.18-.84,1.32L12.34,27l2.76-9.58,1.4,2.63,2.89,5.43v0l-.11.28Zm.94-.13.2-.49a.08.08,0,0,0,0,0l.53-1.32L25.62,12l5.27,10.62L29,26.74l-.11-.13-1.6-1.9-.05,0a.28.28,0,0,0-.09-.07l0,0-.12,0h0a.42.42,0,0,0-.21.06h0l-.66.43-1.63,1.07-1.56-1.77a.42.42,0,0,0-.28-.14.37.37,0,0,0-.25.07l-.05,0-.19.15-.68.55ZM34,25.29l-.82-.68a.43.43,0,0,0-.22-.09h0a.33.33,0,0,0-.13,0,.35.35,0,0,0-.11,0l-1.44,1-1.05.73,1.58-3.5a0,0,0,0,0,0,0l1.32-2.91,3.34,7.41Z"/><path class="cls-3" d="M36.39,27.29l-2.44-2-.82-.68a.46.46,0,0,0-.23-.09h0a.28.28,0,0,0-.13,0s-.08,0-.11,0l-1.44,1-1.05.73,1.58-3.5a0,0,0,0,0,0,0l1.32-2.91Z"/><path class="cls-3" d="M19.39,25.52l-.3.76-.22.55L17,25.58l-.14,0h0a.33.33,0,0,0-.14,0,.38.38,0,0,0-.26.18l-.75,1.18-.83,1.32L12.34,27l2.76-9.58Z"/><path class="cls-3" d="M30.89,22.65,29,26.74l-.11-.13-1.6-1.9-.05,0a.47.47,0,0,0-.09-.06l0,0-.12,0h0a.42.42,0,0,0-.21.06h0l-.66.43-1.63,1.07-1.57-1.77a.38.38,0,0,0-.27-.14.37.37,0,0,0-.25.07l-.05,0-.19.15L20,26.15l.2-.5v0L25.62,12Z"/><path class="cls-4" d="M48.55,33.4A25,25,0,0,1,25,50c-.55,0-1.1,0-1.64,0L9.2,35.79a.42.42,0,0,0,.27.09H40.53a.4.4,0,0,0,.37-.58l-3-6.73h0l-4.44-9.85a.4.4,0,0,0-.37-.25.41.41,0,0,0-.38.24l-1.35,3L26,10.84l-.09-.11h0Z"/><path class="cls-4" d="M20.91,21.69l-1.12,2.82-2.67-5-1.77-3.32a.47.47,0,0,0-.06-.09Z"/></g></g></svg>