<svg xmlns="http://www.w3.org/2000/svg" viewBox="0 0 50 50"><defs><style>.cls-1{fill:#231f20;}</style></defs><title>Recurso 43</title><g id="Capa_2" data-name="Capa 2"><g id="Layer_3" data-name="Layer 3"><path class="cls-1" d="M25,3.15A21.87,21.87,0,0,1,46.85,25a23.33,23.33,0,0,1-.17,2.75c0,.28-.08.56-.11.78s-.09.52-.15.79h0a21.87,21.87,0,0,1-20.69,17.5h-1.1A21.85,21.85,0,0,1,25,3.15M25,0a25,25,0,0,0-.42,50h1.21A25,25,0,0,0,49.51,30c.06-.31.12-.63.17-.94s.09-.6.13-.9A26.8,26.8,0,0,0,50,25,25,25,0,0,0,25,0Z"/><path class="cls-1" d="M38.13,18.71v3.46a.4.4,0,0,1-.39.39h-10V18.33h10A.39.39,0,0,1,38.13,18.71Zm-26.23,0v3.46a.4.4,0,0,0,.39.39h10V18.33h-10A.39.39,0,0,0,11.9,18.71Zm5.84-4.57a20.73,20.73,0,0,1,1.91-2.68,1.87,1.87,0,0,1,1.4-.54,3.33,3.33,0,0,1,1.66.49,3.39,3.39,0,0,1,1.48,1.78c.18.52.51,1.53.82,2.48.32-.95.65-2,.83-2.48a3.39,3.39,0,0,1,1.48-1.78A3.31,3.31,0,0,1,29,10.92a1.87,1.87,0,0,1,1.4.54,21.75,21.75,0,0,1,1.91,2.68,2.51,2.51,0,0,1-1,2.91,3,3,0,0,1-.51.36H19.21a3,3,0,0,1-.51-.36A2.5,2.5,0,0,1,17.74,14.14Zm8.48,2.3,1.66,0,1.31,0a2.07,2.07,0,0,0,1.25-.5,1.36,1.36,0,0,0,.62-1.19,23.29,23.29,0,0,0-1.69-2.38.65.65,0,0,0-.39-.1,1.94,1.94,0,0,0-.94.29,2,2,0,0,0-.88,1C27,14.21,26.57,15.41,26.22,16.44ZM19.59,16a2,2,0,0,0,1.23.5l3,0c-.34-1-.74-2.23-.93-2.82a2,2,0,0,0-.88-1,1.94,1.94,0,0,0-.94-.29.65.65,0,0,0-.39.1A23.29,23.29,0,0,0,19,14.79,1.36,1.36,0,0,0,19.59,16ZM23.21,38.1h3.61V18.33H23.21Zm4.54-13.23h6.48a.47.47,0,0,1,0,.93H27.75V38.1H36a.39.39,0,0,0,.38-.39V23.48H27.75ZM13.66,37.71a.39.39,0,0,0,.38.39h8.24V25.8H15.8a.47.47,0,0,1,0-.93h6.48V23.48H13.66Z"/><line class="cls-1" x1="28.17" y1="38.1" x2="21.43" y2="38.1"/></g></g></svg>