<svg xmlns="http://www.w3.org/2000/svg" viewBox="0 0 50 50"><defs><style>.cls-1{fill:#74cef5;}.cls-2{fill:#fef492;}.cls-3{fill:#ffcd05;}.cls-4{fill:#aee1f6;}.cls-5{fill:#010101;opacity:0.08;}</style></defs><title>Recurso 15</title><g id="Capa_2" data-name="Capa 2"><g id="Layer_1" data-name="Layer 1"><path class="cls-1" d="M50,25a24.78,24.78,0,0,1-1.29,7.93c-.06.19-.12.37-.19.56a25,25,0,0,1-19.7,16.22c-.31,0-.61.09-.92.12h0A25,25,0,1,1,50,25Z"/><path class="cls-2" d="M30,14.94l-.14-.14a7,7,0,1,0-9.67,10.13l0,0a7,7,0,0,0,9.78-10ZM24.9,25.88A6.1,6.1,0,1,1,31,19.77,6.12,6.12,0,0,1,24.9,25.88Z"/><path class="cls-3" d="M31,19.77a6.1,6.1,0,1,1-6.1-6.1A6.11,6.11,0,0,1,31,19.77Z"/><path class="cls-4" d="M36.48,28.61a.46.46,0,0,1-.45.46,2.22,2.22,0,0,0-1.57.62l-.25.19a2.91,2.91,0,0,1-1.89.63,3.07,3.07,0,0,1-2.13-.82,2.24,2.24,0,0,0-1.58-.62,2.22,2.22,0,0,0-1.57.62,3.3,3.3,0,0,1-1.38.74,3.41,3.41,0,0,1-.76.08,3.07,3.07,0,0,1-2.13-.82,2.24,2.24,0,0,0-1.58-.62,2.2,2.2,0,0,0-1.57.62,3.19,3.19,0,0,1-4.27,0,2.24,2.24,0,0,0-1.58-.62A.51.51,0,0,1,13.5,29a.47.47,0,0,1-.18-.37.45.45,0,0,1,.45-.45,3,3,0,0,1,.44,0,3.11,3.11,0,0,1,1.7.79,2.22,2.22,0,0,0,1.57.62A2.24,2.24,0,0,0,19.06,29a3.18,3.18,0,0,1,4.26,0,2.23,2.23,0,0,0,1.52.62h.06A2.24,2.24,0,0,0,26.48,29a3.19,3.19,0,0,1,4.27,0,2.2,2.2,0,0,0,1.57.62,2,2,0,0,0,1.24-.37c.11-.07.22-.16.34-.25A3.07,3.07,0,0,1,36,28.16.45.45,0,0,1,36.48,28.61Z"/><path class="cls-4" d="M36.48,31.32a.44.44,0,0,1-.38.45H36a2.22,2.22,0,0,0-1.57.62l-.25.2a3,3,0,0,1-1.89.62,3.07,3.07,0,0,1-2.13-.82,2.24,2.24,0,0,0-1.58-.62,2,2,0,0,0-1.23.37L27,32.4a3.19,3.19,0,0,1-4.27,0,2.24,2.24,0,0,0-1.58-.62,2.2,2.2,0,0,0-1.57.62,3.1,3.1,0,0,1-1.88.81h-.26a3.07,3.07,0,0,1-2.13-.82,2.24,2.24,0,0,0-1.58-.62.48.48,0,0,1-.28-.1h0a.45.45,0,0,1,.29-.8,3.16,3.16,0,0,1,2.14.82,2.73,2.73,0,0,0,.81.5,2.07,2.07,0,0,0,.76.13,2.25,2.25,0,0,0,1.58-.63,3.18,3.18,0,0,1,4.26,0,2.3,2.3,0,0,0,3.16,0l.25-.19a2.9,2.9,0,0,1,1.88-.63,3.15,3.15,0,0,1,2.14.82,2.2,2.2,0,0,0,1.57.63,2,2,0,0,0,1.24-.38c.11-.07.22-.16.34-.25A3.47,3.47,0,0,1,35.28,31a3.38,3.38,0,0,1,.75-.08A.45.45,0,0,1,36.48,31.32Z"/><path class="cls-4" d="M36.48,34a.44.44,0,0,1-.39.45H36a2.22,2.22,0,0,0-1.57.62l-.25.2a3,3,0,0,1-1.89.62,2.82,2.82,0,0,1-1.57-.42,4,4,0,0,1-.56-.4,2.24,2.24,0,0,0-1.58-.62,2.22,2.22,0,0,0-1.57.62,3.19,3.19,0,0,1-4.27,0,2.24,2.24,0,0,0-1.58-.62,2.19,2.19,0,0,0-1.56.62h0a3.11,3.11,0,0,1-1.89.81h-.25a3.07,3.07,0,0,1-2.13-.82,2.24,2.24,0,0,0-1.58-.62.44.44,0,0,1-.29-.11l0,0h0a.48.48,0,0,1-.12-.31.45.45,0,0,1,.45-.45l.4,0a3.14,3.14,0,0,1,1.74.8,2.69,2.69,0,0,0,.8.5A2.36,2.36,0,0,0,19,34.46l.08-.06a3.18,3.18,0,0,1,4.26,0,2.32,2.32,0,0,0,3.16,0,3.07,3.07,0,0,1,2.13-.82h.21a3.12,3.12,0,0,1,1.93.81,2.2,2.2,0,0,0,1.57.62,2,2,0,0,0,1.24-.37c.11-.07.22-.16.34-.25a3.49,3.49,0,0,1,1.37-.74,3.55,3.55,0,0,1,.76-.08A.45.45,0,0,1,36.48,34Z"/><path class="cls-5" d="M48.52,33.49a25,25,0,0,1-19.7,16.22L13.51,34.4a.39.39,0,0,0,.26.09,2.24,2.24,0,0,1,1.58.62,3.07,3.07,0,0,0,2.13.82h.26a3.1,3.1,0,0,0,1.88-.81h0a2.19,2.19,0,0,1,1.56-.62,2.24,2.24,0,0,1,1.58.62,3.18,3.18,0,0,0,4.26,0,2.32,2.32,0,0,1,3.16,0,4,4,0,0,0,.56.4h0a2.82,2.82,0,0,0,1.57.42,3,3,0,0,0,1.89-.62l.25-.2A2.2,2.2,0,0,1,36,34.49h.06a.45.45,0,0,0-.06-.9,3.55,3.55,0,0,0-.76.08,3.49,3.49,0,0,0-1.37.74l-.34.26a2.1,2.1,0,0,1-1.24.36,2.22,2.22,0,0,1-1.57-.62,3.18,3.18,0,0,0-1.93-.82h-.21a3.07,3.07,0,0,0-2.13.82A2.24,2.24,0,0,1,24.9,35a2.2,2.2,0,0,1-1.57-.62,3.12,3.12,0,0,0-2.14-.82,3.07,3.07,0,0,0-2.13.82l-.08.06h0a2.36,2.36,0,0,1-2.27.44h0l-3.21-3.22a.48.48,0,0,0,.28.1,2.24,2.24,0,0,1,1.58.62,3.07,3.07,0,0,0,2.13.82h.26a3.1,3.1,0,0,0,1.88-.81,2.2,2.2,0,0,1,1.57-.62,2.24,2.24,0,0,1,1.58.62,3.18,3.18,0,0,0,4.26,0l.35-.25h0a2,2,0,0,1,1.23-.37,2.24,2.24,0,0,1,1.58.62,3.07,3.07,0,0,0,2.13.82,3,3,0,0,0,1.89-.62l.25-.2A2.2,2.2,0,0,1,36,31.78h.07a.45.45,0,0,0-.07-.9,3.38,3.38,0,0,0-.75.08,3.35,3.35,0,0,0-1.38.74c-.12.09-.23.18-.34.25a2,2,0,0,1-1.24.37,2.22,2.22,0,0,1-1.57-.62,3.1,3.1,0,0,0-2.14-.82,2.9,2.9,0,0,0-1.88.63l-.25.19a2.24,2.24,0,0,1-1.58.62,2.2,2.2,0,0,1-1.57-.62,3.12,3.12,0,0,0-2.14-.82,3.07,3.07,0,0,0-2.13.82,2.24,2.24,0,0,1-1.58.62,2.09,2.09,0,0,1-.76-.12h0L13.49,29h0a.51.51,0,0,0,.27.09,2.24,2.24,0,0,1,1.58.62,3.19,3.19,0,0,0,4.27,0,2.2,2.2,0,0,1,1.57-.62,2.24,2.24,0,0,1,1.58.62,3.07,3.07,0,0,0,2.13.82,3.41,3.41,0,0,0,.76-.08h0A3.25,3.25,0,0,0,27,29.69a2.32,2.32,0,0,1,3.16,0,3.07,3.07,0,0,0,2.13.82,2.91,2.91,0,0,0,1.89-.63l.25-.19A2.2,2.2,0,0,1,36,29.07a.46.46,0,0,0,.45-.46.45.45,0,0,0-.45-.45A3.12,3.12,0,0,0,33.9,29c-.12.09-.23.18-.34.25a2,2,0,0,1-1.24.38A2.22,2.22,0,0,1,30.75,29a3.19,3.19,0,0,0-4.27,0,2.25,2.25,0,0,1-1.58.63h-.06L20.2,25a7,7,0,0,0,9.77-10Z"/></g></g></svg>