<svg xmlns="http://www.w3.org/2000/svg" viewBox="0 0 50 50"><defs><style>.cls-1{fill:#231f20;}</style></defs><title>Recurso 46</title><g id="Capa_2" data-name="Capa 2"><g id="Layer_3" data-name="Layer 3"><path class="cls-1" d="M25,3.15A21.87,21.87,0,0,1,46.85,25c0,.24,0,.47,0,.7v0h0c0,.3,0,.61,0,.93h0A21.85,21.85,0,0,1,26.05,46.82l-1,0h0a21.85,21.85,0,0,1,0-43.7M25,0a25,25,0,0,0,0,50h0c.39,0,.78,0,1.16,0A25,25,0,0,0,49.92,26.91q0-.54.06-1.08c0-.28,0-.55,0-.83A25,25,0,0,0,25,0Z"/><path class="cls-1" d="M33.59,15.36a.63.63,0,0,1,.63-.63h.92a.63.63,0,0,1,.63.63v.91a.64.64,0,0,1-.63.64h-.92a.64.64,0,0,1-.63-.64Zm-3.84,0a.63.63,0,0,1,.63-.63h.92a.63.63,0,0,1,.63.63v.91a.64.64,0,0,1-.63.64h-.92a.64.64,0,0,1-.63-.64Zm-3.83,0a.63.63,0,0,1,.63-.63h.91a.64.64,0,0,1,.64.63v.91a.64.64,0,0,1-.64.64h-.91a.64.64,0,0,1-.63-.64Zm-3.84,0a.63.63,0,0,1,.63-.63h.92a.63.63,0,0,1,.63.63v.91a.64.64,0,0,1-.63.64h-.92a.64.64,0,0,1-.63-.64Zm-3.84,0a.64.64,0,0,1,.64-.63h.91a.63.63,0,0,1,.63.63v.91a.64.64,0,0,1-.63.64h-.91a.64.64,0,0,1-.64-.64Zm-3.83,0a.63.63,0,0,1,.63-.63H16a.63.63,0,0,1,.63.63v.91a.64.64,0,0,1-.63.64H15a.64.64,0,0,1-.63-.64Zm2.18,20.22a.63.63,0,0,1-.63.63H15a.63.63,0,0,1-.63-.63v-.92A.63.63,0,0,1,15,34H16a.63.63,0,0,1,.63.63Zm3.83,0a.63.63,0,0,1-.63.63h-.91a.64.64,0,0,1-.64-.63v-.92a.64.64,0,0,1,.64-.63h.91a.63.63,0,0,1,.63.63Zm3.84,0a.63.63,0,0,1-.63.63h-.92a.63.63,0,0,1-.63-.63v-.92a.63.63,0,0,1,.63-.63h.92a.63.63,0,0,1,.63.63Zm3.84,0a.64.64,0,0,1-.64.63h-.91a.63.63,0,0,1-.63-.63v-.92a.63.63,0,0,1,.63-.63h.91a.64.64,0,0,1,.64.63Zm3.83,0a.63.63,0,0,1-.63.63h-.92a.64.64,0,0,1-.63-.63v-.92a.63.63,0,0,1,.63-.63h.92a.63.63,0,0,1,.63.63Zm3.84,0a.64.64,0,0,1-.63.63h-.92a.63.63,0,0,1-.63-.63v-.92a.63.63,0,0,1,.63-.63h.92a.63.63,0,0,1,.63.63Zm.77-3.69a1.33,1.33,0,0,1-.92,1.26H14.56a1.31,1.31,0,0,1-.92-1.26V19.11A1.33,1.33,0,0,1,15,17.78H35.21a1.34,1.34,0,0,1,1.33,1.33Zm.77-17.59a1.19,1.19,0,0,0-.92-.45H13.79A1.17,1.17,0,0,0,12.62,15V35.91a1.18,1.18,0,0,0,.44.92,1.15,1.15,0,0,0,.73.25h22.6a1.17,1.17,0,0,0,1.17-1.17V15A1.21,1.21,0,0,0,37.31,14.3ZM31.44,24.65,20.64,20a.94.94,0,0,0-1.31.86V30.2a.93.93,0,0,0,1.31.85l10.8-4.7A.93.93,0,0,0,31.44,24.65Z"/></g></g></svg>