<svg xmlns="http://www.w3.org/2000/svg" viewBox="0 0 50 50"><defs><style>.cls-1{fill:#231f20;}</style></defs><title>Recurso 37</title><g id="Capa_2" data-name="Capa 2"><g id="Layer_3" data-name="Layer 3"><path class="cls-1" d="M25,3.15A21.87,21.87,0,0,1,46.85,25a21.41,21.41,0,0,1-.24,3.22h0v0c0,.22-.07.44-.11.64V29A21.94,21.94,0,0,1,29.25,46.44H29l-.27.09-.54.08a21.61,21.61,0,0,1-3.22.24,21.85,21.85,0,0,1,0-43.7M25,0a25,25,0,1,0,3.68,49.73l.86-.14h0a25,25,0,0,0,20-20V29.5c0-.27.1-.54.14-.81A25,25,0,0,0,25,0Z"/><path class="cls-1" d="M26.67,18.32A1.68,1.68,0,1,1,25,16.65,1.69,1.69,0,0,1,26.67,18.32Zm5.7,18.84A14.21,14.21,0,1,1,25,10.8,14.15,14.15,0,0,1,38.93,22.21,14.34,14.34,0,0,1,32.37,37.16Zm-5.7-5.45A1.68,1.68,0,1,0,25,33.38,1.69,1.69,0,0,0,26.67,31.71ZM28,12.33A9,9,0,0,0,21.93,12,13.38,13.38,0,0,0,11.61,25,13.37,13.37,0,0,0,24.39,38.38c-.29-.1-.64-.09-.93-.16A6.69,6.69,0,0,1,25,25a6.69,6.69,0,0,0,3-12.68Z"/></g></g></svg>