<svg xmlns="http://www.w3.org/2000/svg" viewBox="0 0 50 50"><defs><style>.cls-1{fill:#e82127;}.cls-2,.cls-4{fill:#010101;}.cls-3{fill:#fff;}.cls-4{opacity:0.15;}</style></defs><title>Recurso 1</title><g id="Capa_2" data-name="Capa 2"><g id="Layer_1" data-name="Layer 1"><path class="cls-1" d="M50,25a24.84,24.84,0,0,1-.27,3.69c0,.29-.09.57-.15.86a25,25,0,0,1-20,20l-.86.14A25,25,0,1,1,50,25Z"/><path class="cls-2" d="M26.63,18.27A1.68,1.68,0,1,1,25,16.6,1.69,1.69,0,0,1,26.63,18.27Z"/><path class="cls-2" d="M38.89,22.16a14.22,14.22,0,0,0-27.3-2,14.22,14.22,0,0,0,20.74,17A14.36,14.36,0,0,0,38.89,22.16ZM25,33.33a1.68,1.68,0,1,1,1.67-1.67A1.69,1.69,0,0,1,25,33.33Zm5.21-10.86A6.8,6.8,0,0,1,25,25a6.69,6.69,0,0,0-1.54,13.2c.29.07.64.06.93.16a13.38,13.38,0,0,1-2.46-26.39,9,9,0,0,1,6.05.34A6.76,6.76,0,0,1,30.17,22.47Z"/><path class="cls-3" d="M26.63,31.66A1.68,1.68,0,1,1,25,30,1.69,1.69,0,0,1,26.63,31.66Z"/><path class="cls-3" d="M27.94,12.28a9,9,0,0,0-6.05-.34A13.38,13.38,0,0,0,11.57,25,13.36,13.36,0,0,0,24.35,38.33c-.29-.1-.64-.09-.93-.16A6.69,6.69,0,0,1,25,25a6.7,6.7,0,0,0,3-12.69ZM25,20a1.68,1.68,0,1,1,1.67-1.68A1.69,1.69,0,0,1,25,20Z"/><path class="cls-4" d="M49.58,29.55a25,25,0,0,1-20,20L15.68,35.73l.22.19a14.22,14.22,0,0,0,23-13.76c0-.1,0-.2-.06-.3a2,2,0,0,1,0-.24c-.07-.27-.15-.55-.23-.81a1.29,1.29,0,0,0-.07-.21c-.06-.2-.13-.4-.2-.6l-.15-.36c-.08-.2-.17-.4-.26-.6a2,2,0,0,0-.1-.21l0,0a4.11,4.11,0,0,0-.21-.42l0-.07a2,2,0,0,0-.11-.2,1.71,1.71,0,0,0-.13-.23c0-.08-.09-.16-.14-.23l-.22-.36-.25-.36-.26-.37-.19-.24L36,16.09l-.17-.21-.18-.2c-.07-.08-.14-.17-.22-.25Z"/></g></g></svg>